<?xml version="1.0" encoding="UTF-8"?>
<!DOCTYPE svg PUBLIC "-//W3C//DTD SVG 1.1//EN" "http://www.w3.org/Graphics/SVG/1.1/DTD/svg11.dtd">
<!-- Creator: CorelDRAW -->
<svg xmlns="http://www.w3.org/2000/svg" xml:space="preserve" width="51.4596mm" height="21.6106mm" version="1.1" style="shape-rendering:geometricPrecision; text-rendering:geometricPrecision; image-rendering:optimizeQuality; fill-rule:evenodd; clip-rule:evenodd"
viewBox="0 0 5176.08 2173.71"
 xmlns:xlink="http://www.w3.org/1999/xlink"
 xmlns:xodm="http://www.corel.com/coreldraw/odm/2003">
 <defs>
  <style type="text/css">
   <![CDATA[
    .fil0 {fill:#FCB92E;fill-rule:nonzero}
   ]]>
  </style>
 </defs>
 <g id="Camada_x0020_1">
  <metadata id="CorelCorpID_0Corel-Layer"/>
  <g id="_2059681718000">
   <path class="fil0" d="M556.19 1492.8c528.28,461.54 1495.28,795.03 2285.39,644.2 37.42,-2.33 75.59,-6.94 114.19,-14 970.67,-177.54 1812.98,-712.75 2220.31,-1612.63l-1127.82 -510.36c-239.9,529.98 -660,1049.97 -1261,1201.32 -32.83,8.26 -64.94,16.84 -96.2,25.85 -5.18,0.3 -10.6,0.9 -16.93,2.01 -497.83,91.01 -1187.09,147.75 -1772.62,-260.47l-345.32 524.08z"/>
   <path class="fil0" d="M605.6 775.12c-30.33,-165.89 -189.28,-275.7 -355.2,-245.41 -165.88,30.36 -275.68,189.35 -245.38,355.2 30.33,165.92 189.35,275.76 355.21,245.41 165.89,-30.33 275.75,-189.35 245.37,-355.2z"/>
  </g>
 </g>
</svg>
