<svg xmlns="http://www.w3.org/2000/svg" xml:space="preserve" width="110.907mm" height="66.476mm" version="1.1" style="shape-rendering:geometricPrecision; text-rendering:geometricPrecision; image-rendering:optimizeQuality; fill-rule:evenodd; clip-rule:evenodd"
viewBox="0 0 11076.42 6639.06">
 <g id="Camada_x0020_1">

  <!-- ============================================= -->
  <!-- PARTE DA LOGO QUE MUDA DE COR (TEXTO) -->
  <!-- O fill="currentColor" faz ela herdar a cor do CSS -->
  <!-- ============================================= -->
  <g fill="currentColor">
   <polygon points="6683.34,6618.14 6683.34,5627.57 6292.69,5627.57 6292.69,5397.37 7356.51,5397.37 7356.51,5627.57 6965.86,5627.57 6965.86,6618.14 "/>
   <path id="_1" d="M7768.08 5889.17l587.71 0 0 219.74 -587.71 0 0 -219.74zm20.92 502.25l664.45 0 0 226.72 -945.22 0 0 -1220.77 922.55 0 0 226.72 -641.77 0 0 767.33z"/>
   <path id="_2" d="M9262.65 6639.06c-94.17,0 -181.66,-15.4 -262.46,-46.21 -80.81,-30.81 -150.86,-74.7 -210.15,-131.67 -59.29,-56.97 -105.5,-123.82 -138.64,-200.55 -33.14,-76.73 -49.71,-161.02 -49.71,-252.87 0,-91.85 16.57,-176.14 49.71,-252.87 33.14,-76.73 79.64,-143.59 139.51,-200.55 59.88,-56.97 129.93,-100.86 210.15,-131.67 80.23,-30.81 168,-46.21 263.34,-46.21 105.79,0 201.42,18.31 286.88,54.93 85.45,36.62 157.25,90.39 215.37,161.31l-181.37 167.42c-41.86,-47.67 -88.37,-83.42 -139.52,-107.25 -51.15,-23.84 -106.96,-35.75 -167.41,-35.75 -56.98,0 -109.29,9.3 -156.96,27.9 -47.67,18.61 -88.95,45.34 -123.82,80.23 -34.88,34.88 -61.91,76.15 -81.1,123.82 -19.19,47.67 -28.77,100.56 -28.77,158.7 0,58.14 9.59,111.03 28.77,158.7 19.19,47.67 46.22,88.95 81.1,123.82 34.88,34.89 76.15,61.62 123.82,80.23 47.67,18.61 99.98,27.9 156.96,27.9 60.45,0 116.26,-11.91 167.41,-35.75 51.15,-23.83 97.66,-60.16 139.52,-109l181.37 167.42c-58.13,70.92 -129.92,124.98 -215.37,162.19 -85.46,37.2 -181.67,55.8 -288.63,55.8z"/>
   <path id="_3" d="M10793.84 5397.37l282.52 0 0 1220.77 -282.52 0 0 -1220.77zm-554.58 1220.77l-282.53 0 0 -1220.77 282.53 0 0 1220.77zm575.5 -500.52l-596.43 0 0 -238.92 596.43 0 0 238.92z"/>
   <path d="M11076.42 3708.45l0 -401.21 -1342.37 0 0 4.35 -414.27 0 -325.3 869.59 -325.27 -869.59 -503.14 0 106.8 286.1c-20.81,-25.97 -42.67,-51.1 -66.43,-74.68 -81,-80.19 -176.02,-143.85 -285.2,-190.83 -109.16,-46.98 -225.2,-70.47 -348.04,-70.47 -124.39,0 -240.72,23.49 -349.16,70.47 -108.45,46.99 -203.16,110.65 -284.09,190.83 -80.98,80.25 -144.96,174.59 -191.89,283.04 -10.21,23.52 -19.1,47.45 -27.1,71.67l0 -570.48 -414.25 0c-12.96,0 -24.61,6.51 -34.71,19.51l-401.17 665.78 -399.07 -665.78c-10.07,-13 -22.41,-19.51 -36.85,-19.51l-412.05 0 0 530.54c-4.11,-10.63 -8.26,-21.25 -12.79,-31.73 -47.02,-108.45 -110.93,-202.79 -191.91,-283.04 -80.98,-80.19 -176.02,-143.85 -285.19,-190.83 -109.13,-46.98 -225.15,-70.47 -348.07,-70.47 -124.36,0 -240.68,23.49 -349.1,70.47 -108.48,46.99 -203.18,110.65 -284.12,190.83 -81.02,80.25 -144.93,174.59 -191.93,283.04 -2.4,5.5 -4.47,11.12 -6.73,16.63 -3.51,-33.1 -9.75,-67.13 -19.3,-102.29 -15.19,-55.62 -37.27,-104.42 -66.17,-146.46 -23.14,-33.24 -51.28,-65.68 -84.53,-97.55 -33.34,-31.75 -69.41,-60.31 -108.51,-85.63 -38.98,-25.29 -79.48,-45.55 -121.43,-60.78 -41.97,-15.11 -83.1,-22.72 -123.59,-22.72l-843.62 0 0 388.81c-6.48,-18.69 -14.01,-36.95 -22.75,-54.79 -33.97,-69.42 -79.45,-128.69 -136.63,-177.87 -57.06,-49.16 -122.86,-87.46 -197.29,-114.93 -74.49,-27.47 -152.16,-41.22 -233.15,-41.22l-756.86 0 0 1682.9 451.03 0 0 -522.67 305.83 0c80.99,0 158.66,-15.52 233.15,-46.65 74.42,-31.06 140.23,-73.68 197.29,-127.91 57.19,-54.18 102.67,-117.46 136.63,-189.78 8.74,-18.58 16.27,-37.55 22.75,-56.91l0 943.91 464.08 0 -2.15 -520.46 284.1 0 292.77 520.46 505.3 0 -394.73 -693.99c65.07,-46.04 116.24,-102.71 154.64,-169.11 -0.26,8.66 -0.64,17.26 -0.64,26.01 0,122.88 23.53,238.52 70.5,346.98 47,108.42 110.92,202.71 191.93,282.99 80.95,80.24 175.64,143.52 284.12,189.72 108.42,46.31 224.74,69.44 349.1,69.44 122.92,0 238.94,-23.13 348.07,-69.44 109.17,-46.2 204.22,-109.48 285.19,-189.72 80.99,-80.28 144.89,-174.57 191.91,-282.99 4.53,-10.51 8.68,-21.11 12.79,-31.77l0 521.88 440.24 0 0 -865.3 359.99 594.21c4.36,8.67 11.54,14.46 21.67,17.36 10.13,2.88 19.51,4.34 28.22,4.34 7.23,0 15.91,-1.47 26.04,-4.34 10.1,-2.9 17.36,-8.69 21.7,-17.36l359.99 -594.21 0 865.3 440.24 0 0 -561.82c8,24.23 16.89,48.16 27.1,71.71 46.93,108.42 110.92,202.71 191.89,282.99 80.94,80.24 175.64,143.52 284.09,189.72 108.44,46.31 224.77,69.44 349.16,69.44 122.84,0 238.88,-23.13 348.04,-69.44 109.18,-46.2 204.21,-109.48 285.2,-189.72 80.97,-80.28 144.91,-174.57 191.91,-282.99 46.99,-108.46 70.53,-224.1 70.53,-346.98 0,-10.96 -0.41,-21.72 -0.81,-32.54l324.7 869.63 405.59 0 535.69 -1439.62 0 1439.62 1342.37 0 0 -399.06 -904.34 0 0 -240.72 852.31 0 0 -401.18 -852.31 0 0 -240.72 904.34 0zm-9537.28 226.17l0 0c-10.12,21.59 -23.87,40.67 -41.2,57.14 -17.37,16.54 -37.65,29.5 -60.71,38.84 -23.17,9.34 -47.71,14.05 -73.77,14.05l-262.39 0 0 -362.19 262.39 0c26.06,0 50.59,4.63 73.77,14 23.06,9.33 43.34,22.27 60.71,38.78 17.33,16.55 31.08,35.54 41.2,57.14 10.13,21.54 15.17,45.25 15.17,71.12 0,25.91 -5.04,49.62 -15.17,71.13zm1333.71 0l0 0c-10.18,21.59 -23.88,40.67 -41.25,57.14 -17.35,16.54 -37.58,29.5 -60.69,38.84 -23.17,9.34 -47.73,14.05 -73.77,14.05l-262.39 0 0 -362.19 262.39 0c26.04,0 50.59,4.63 73.77,14 23.11,9.33 43.34,22.27 60.69,38.78 17.37,16.55 31.07,35.54 41.25,57.14 10.11,21.54 15.19,45.25 15.19,71.12 0,25.91 -5.08,49.62 -15.19,71.13zm1720.82 394.06l0 0c-22.42,56.37 -53.1,105.53 -92.13,147.49 -39.06,41.94 -85.66,75.55 -139.89,100.83 -54.23,25.29 -113.16,37.92 -176.77,37.92 -63.6,0 -122.5,-12.63 -176.7,-37.92 -54.26,-25.28 -100.86,-58.89 -139.92,-100.83 -39.04,-41.96 -69.78,-91.12 -92.13,-147.49 -22.46,-56.39 -33.64,-114.93 -33.64,-175.64 0,-62.19 11.18,-121.11 33.64,-176.82 22.35,-55.57 53.09,-104.39 92.13,-146.35 39.06,-41.92 85.66,-75.5 139.92,-100.84 54.2,-25.25 113.1,-37.96 176.7,-37.96 63.61,0 122.54,12.71 176.77,37.96 54.23,25.34 100.83,58.92 139.89,100.84 39.03,41.97 69.71,90.78 92.13,146.35 22.39,55.71 33.68,114.63 33.68,176.82 0,60.71 -11.29,119.26 -33.68,175.64zm3388.31 0l0 0c-22.43,56.37 -53.13,105.53 -92.14,147.49 -39.07,41.94 -85.66,75.55 -139.92,100.83 -54.22,25.29 -113.14,37.92 -176.73,37.92 -63.61,0 -122.54,-12.63 -176.75,-37.92 -54.24,-25.28 -100.82,-58.89 -139.89,-100.83 -39.01,-41.96 -69.76,-91.12 -92.14,-147.49 -22.46,-56.39 -33.65,-114.93 -33.65,-175.64 0,-62.19 11.19,-121.11 33.65,-176.82 22.38,-55.57 53.13,-104.39 92.14,-146.35 39.07,-41.92 85.65,-75.5 139.89,-100.84 54.21,-25.25 113.14,-37.96 176.75,-37.96 63.59,0 122.51,12.71 176.73,37.96 54.26,25.34 100.85,58.92 139.92,100.84 39.01,41.97 69.71,90.78 92.14,146.35 22.41,55.71 33.62,114.63 33.62,176.82 0,60.71 -11.21,119.26 -33.62,175.64z"/>
   <polygon points="-0,4990.13 470.18,4990.13 470.18,3311.59 -0,3311.59 "/>
  </g>
  
  <!-- ============================================= -->
  <!-- PARTE DA LOGO QUE É FIXA (AMARELO) -->
  <!-- A cor #FCB92E é aplicada diretamente aqui -->
  <!-- ============================================= -->
  <g id="_2059675740512">
   <path fill="#FCB92E" d="M3542.84 1482.2c524.54,458.26 1484.67,789.39 2269.17,639.63 37.15,-2.32 75.05,-6.89 113.38,-13.9 963.78,-176.28 1800.12,-707.69 2204.56,-1601.19l-1119.82 -506.74c-238.19,526.22 -655.32,1042.52 -1252.05,1192.8 -32.6,8.2 -64.48,16.72 -95.52,25.67 -5.14,0.3 -10.53,0.89 -16.81,2 -494.29,90.36 -1178.66,146.7 -1760.05,-258.62l-342.87 520.36z"/>
   <path fill="#FCB92E" d="M3591.91 769.62c-30.11,-164.71 -187.94,-273.75 -352.68,-243.67 -164.7,30.14 -273.73,188.01 -243.64,352.68 30.11,164.74 188.01,273.81 352.69,243.67 164.71,-30.11 273.8,-188.01 243.63,-352.68z"/>
  </g>

 </g>
</svg>